<?xml version="1.0" encoding="UTF-8" standalone="no"?>
<svg
   xmlns:dc="http://purl.org/dc/elements/1.1/"
   xmlns:cc="http://creativecommons.org/ns#"
   xmlns:rdf="http://www.w3.org/1999/02/22-rdf-syntax-ns#"
   xmlns:svg="http://www.w3.org/2000/svg"
   xmlns="http://www.w3.org/2000/svg"
   xmlns:sodipodi="http://sodipodi.sourceforge.net/DTD/sodipodi-0.dtd"
   xmlns:inkscape="http://www.inkscape.org/namespaces/inkscape"
   height="61"
   id="Layer_1"
   version="1.1"
   viewBox="0 0 61 61"
   width="61"
   xml:space="preserve"
   inkscape:version="0.92.5 (2060ec1f9f, 2020-04-08)"
   sodipodi:docname="instagram.svg"
   inkscape:export-filename="/run/user/1000/gvfs/sftp:host=128.199.187.16/var/www/html/wp-content/themes/breeturner/images/icons/instagram_black.png"
   inkscape:export-xdpi="90"
   inkscape:export-ydpi="90"><metadata
     id="metadata9"><rdf:RDF><cc:Work
         rdf:about=""><dc:format>image/svg+xml</dc:format><dc:type
           rdf:resource="http://purl.org/dc/dcmitype/StillImage" /><dc:title /></cc:Work></rdf:RDF></metadata><defs
     id="defs7" /><sodipodi:namedview
     pagecolor="#ffffff"
     bordercolor="#666666"
     borderopacity="1"
     objecttolerance="10"
     gridtolerance="10"
     guidetolerance="10"
     inkscape:pageopacity="0"
     inkscape:pageshadow="2"
     inkscape:window-width="3840"
     inkscape:window-height="2086"
     id="namedview5"
     showgrid="false"
     inkscape:zoom="3.5223881"
     inkscape:cx="-88.663134"
     inkscape:cy="19.076271"
     inkscape:window-x="3840"
     inkscape:window-y="0"
     inkscape:window-maximized="1"
     inkscape:current-layer="Layer_1"
     fit-margin-top="0"
     fit-margin-left="0"
     fit-margin-right="0"
     fit-margin-bottom="0" /><path
     d="m 39.771,23.078 v -0.006 c 0.502,0 1.005,0.01 1.508,-0.002 0.646,-0.016 1.172,-0.57 1.172,-1.217 0,-0.963 0,-1.927 0,-2.89 0,-0.691 -0.547,-1.24 -1.236,-1.241 -0.961,0 -1.922,-0.001 -2.883,0 -0.688,10e-4 -1.236,0.552 -1.236,1.243 -10e-4,0.955 -0.004,1.91 0.003,2.865 0.001,0.143 0.028,0.291 0.073,0.426 0.173,0.508 0.639,0.82 1.209,0.823 0.463,0 0.927,-0.001 1.39,-0.001 z M 30.5,24.317 c -3.384,-0.002 -6.135,2.721 -6.182,6.089 -0.049,3.46 2.72,6.201 6.04,6.272 3.454,0.074 6.248,-2.686 6.321,-6.043 0.075,-3.46 -2.717,-6.32 -6.179,-6.318 z m -11.954,3.299 v 0.082 c 0,4.515 -10e-4,9.03 0,13.545 0,0.649 0.562,1.208 1.212,1.208 7.16,10e-4 14.319,10e-4 21.479,0 0.656,0 1.215,-0.557 1.215,-1.212 0.001,-4.509 0,-9.02 0,-13.528 V 27.617 H 39.54 c 0.411,1.314 0.537,2.651 0.376,4.014 -0.161,1.363 -0.601,2.631 -1.316,3.803 -0.715,1.172 -1.644,2.145 -2.779,2.918 -2.944,2.006 -6.821,2.182 -9.946,0.428 -1.579,-0.885 -2.819,-2.12 -3.685,-3.713 -1.289,-2.373 -1.495,-4.865 -0.739,-7.451 -0.968,0 -1.93,0 -2.905,0 z m 24.159,18.139 c 0.159,-0.026 0.318,-0.049 0.475,-0.083 1.246,-0.265 2.264,-1.304 2.508,-2.557 0.025,-0.137 0.045,-0.273 0.067,-0.409 V 18.294 c -0.021,-0.133 -0.04,-0.268 -0.065,-0.401 -0.268,-1.367 -1.396,-2.428 -2.78,-2.618 -0.058,-0.007 -0.113,-0.02 -0.17,-0.03 H 18.261 c -0.147,0.027 -0.296,0.047 -0.441,0.08 -1.352,0.308 -2.352,1.396 -2.545,2.766 -0.008,0.057 -0.02,0.114 -0.029,0.171 V 42.74 c 0.028,0.154 0.05,0.311 0.085,0.465 0.299,1.322 1.427,2.347 2.77,2.52 0.064,0.008 0.13,0.021 0.195,0.03 z M 30.5,60.5 c -16.568,0 -30,-13.432 -30,-30 0,-16.569 13.432,-30 30,-30 16.568,0 30,13.431 30,30 0,16.568 -13.432,30 -30,30 z"
     style="clip-rule:evenodd;fill:#000000;fill-opacity:1;fill-rule:evenodd;stroke:none;stroke-opacity:0.6"
     id="path3"
     inkscape:export-xdpi="90"
     inkscape:export-ydpi="90"
     inkscape:connector-curvature="0" /></svg>