<?xml version="1.0" encoding="UTF-8" standalone="no"?>
<svg
   xmlns:dc="http://purl.org/dc/elements/1.1/"
   xmlns:cc="http://creativecommons.org/ns#"
   xmlns:rdf="http://www.w3.org/1999/02/22-rdf-syntax-ns#"
   xmlns:svg="http://www.w3.org/2000/svg"
   xmlns="http://www.w3.org/2000/svg"
   xmlns:sodipodi="http://sodipodi.sourceforge.net/DTD/sodipodi-0.dtd"
   xmlns:inkscape="http://www.inkscape.org/namespaces/inkscape"
   height="61"
   id="Layer_1"
   version="1.1"
   viewBox="0 0 61 61"
   width="61"
   xml:space="preserve"
   inkscape:version="0.92.5 (2060ec1f9f, 2020-04-08)"
   sodipodi:docname="twitter.svg"><metadata
     id="metadata9"><rdf:RDF><cc:Work
         rdf:about=""><dc:format>image/svg+xml</dc:format><dc:type
           rdf:resource="http://purl.org/dc/dcmitype/StillImage" /><dc:title /></cc:Work></rdf:RDF></metadata><defs
     id="defs7" /><sodipodi:namedview
     pagecolor="#ffffff"
     bordercolor="#666666"
     borderopacity="1"
     objecttolerance="10"
     gridtolerance="10"
     guidetolerance="10"
     inkscape:pageopacity="0"
     inkscape:pageshadow="2"
     inkscape:window-width="3840"
     inkscape:window-height="2086"
     id="namedview5"
     showgrid="false"
     inkscape:zoom="3.5223881"
     inkscape:cx="-209.04237"
     inkscape:cy="29.864407"
     inkscape:window-x="3840"
     inkscape:window-y="0"
     inkscape:window-maximized="1"
     inkscape:current-layer="Layer_1"
     fit-margin-top="0"
     fit-margin-left="0"
     fit-margin-right="0"
     fit-margin-bottom="0" /><path
     d="m 34.667,18.783 c -2.619,0.953 -4.274,3.411 -4.086,6.101 l 0.063,1.038 -1.048,-0.127 C 25.783,25.308 22.451,23.656 19.622,20.88 l -1.383,-1.377 -0.356,1.017 c -0.754,2.267 -0.272,4.661 1.299,6.271 0.838,0.89 0.649,1.017 -0.796,0.487 -0.503,-0.169 -0.943,-0.296 -0.985,-0.233 -0.146,0.149 0.356,2.076 0.754,2.839 0.545,1.06 1.655,2.097 2.871,2.712 l 1.027,0.487 -1.215,0.021 c -1.173,0 -1.215,0.021 -1.089,0.467 0.419,1.377 2.074,2.839 3.918,3.475 l 1.299,0.444 -1.131,0.678 c -1.676,0.976 -3.646,1.526 -5.616,1.567 -0.944,0.021 -1.719,0.106 -1.719,0.17 0,0.211 2.557,1.397 4.044,1.864 4.463,1.377 9.765,0.783 13.746,-1.568 2.829,-1.674 5.657,-5 6.978,-8.221 0.713,-1.715 1.425,-4.851 1.425,-6.354 0,-0.975 0.063,-1.102 1.236,-2.267 0.692,-0.678 1.341,-1.419 1.467,-1.631 0.21,-0.403 0.188,-0.403 -0.88,-0.043 -1.781,0.636 -2.033,0.551 -1.152,-0.402 0.649,-0.678 1.425,-1.907 1.425,-2.267 0,-0.063 -0.314,0.042 -0.671,0.233 -0.377,0.212 -1.215,0.53 -1.844,0.72 l -1.131,0.361 -1.027,-0.7 C 39.55,19.249 38.755,18.825 38.335,18.698 37.266,18.402 35.631,18.444 34.667,18.783 Z M 30.5,60.5 c -16.568,0 -30,-13.432 -30,-30 0,-16.569 13.432,-30 30,-30 16.568,0 30,13.431 30,30 0,16.568 -13.432,30 -30,30 z"
     style="clip-rule:evenodd;opacity:1;fill:#000000;fill-opacity:1;fill-rule:evenodd;stroke:none;stroke-width:1;stroke-miterlimit:4;stroke-dasharray:none;stroke-opacity:0.6"
     id="path3"
     inkscape:export-xdpi="90.300003"
     inkscape:export-ydpi="90.300003"
     inkscape:connector-curvature="0" /></svg>